# xmcd CD database file
#
# Track frame offsets:
#	150
#	33067
#	73885
#	90172
#	106290
#	143332
#	153962
#
# Disc length: 2612 seconds
#
# Revision: 0
# Processed by: cddbd v1.5.1PL0 Copyright (c) Steve Scherf et al.
# Submitted via: CDex 1.51
#
DISCID=470a3207
DTITLE=Manu Carré 4tet - Réconciliabulle
DYEAR=1997
DGENRE=Jazz
TTITLE0=X.tirp
TTITLE1=Aluner
TTITLE2=J&J (à deux)
TTITLE3=Menuet 13
TTITLE4=Paramolo
TTITLE5=J&J (tout seul)
TTITLE6=Garage D
EXTD=YEAR: 1997
EXTT0=
EXTT1=
EXTT2=
EXTT3=
EXTT4=
EXTT5=
EXTT6=
PLAYORDER=
